/* XPM */
static char *_1735932610[] = {
/* columns rows colors chars-per-pixel */
"21 32 125 2 ",
"   c #A15C52",
".  c #8A4F46",
"X  c #4E2D28",
"o  c #221311",
"O  c #100908",
"+  c #030202",
"@  c #110A0A",
"#  c #251513",
"$  c #532F2A",
"%  c #91534A",
"&  c #9D5950",
"*  c #432623",
"=  c black",
"-  c #020102",
";  c #512F29",
":  c #9F5B51",
">  c #9A584E",
",  c #201210",
"<  c #000100",
"1  c #010000",
"2  c #000001",
"3  c #2C1917",
"4  c #A05B51",
"5  c #301B18",
"6  c #010101",
"7  c #321C1A",
"8  c #5D352F",
"9  c #73423B",
"0  c #5A332E",
"q  c #281715",
"w  c #452823",
"e  c #663A34",
"r  c #060403",
"t  c #77443D",
"y  c #6B3D36",
"u  c #020101",
"i  c #79453E",
"p  c #9E5A50",
"a  c #120A09",
"s  c #6B3D37",
"d  c #59332D",
"f  c #6D3E37",
"g  c #A05C52",
"h  c #1B100E",
"j  c #804941",
"k  c #39201D",
"l  c #693C36",
"z  c #4C2B27",
"x  c #9D5A50",
"c  c #080504",
"v  c #010201",
"b  c #9C594F",
"n  c #8C5047",
"m  c #140C0A",
"M  c #814A42",
"N  c #211311",
"B  c #100A08",
"V  c #94544B",
"C  c #683C35",
"Z  c #3F2420",
"A  c #2F1B18",
"S  c #7B463F",
"D  c #512E29",
"F  c #422621",
"G  c #633932",
"H  c #422521",
"J  c #5F3631",
"K  c #502D28",
"L  c #54302B",
"P  c #3A211E",
"I  c #673B34",
"U  c #57322C",
"Y  c #4D2C28",
"T  c #321D1A",
"R  c #6F3F39",
"E  c #5F3730",
"W  c #462824",
"Q  c #321C19",
"!  c #72413A",
"~  c #643933",
"^  c #432622",
"/  c #6C3E37",
"(  c #5E3630",
")  c #492925",
"_  c #58332D",
"`  c #472824",
"'  c #5B342E",
"]  c #4B2B26",
"[  c #58322D",
"{  c #492A25",
"}  c #38211D",
"|  c #371F1C",
" . c #874D45",
".. c #8E5148",
"X. c #180E0C",
"o. c #070504",
"O. c #030302",
"+. c #7E4840",
"@. c #291715",
"#. c #4A2A26",
"$. c #894E46",
"%. c #190E0D",
"&. c #9E5B51",
"*. c #9A584F",
"=. c #0E0807",
"-. c #050303",
";. c #95554C",
":. c #4D2C27",
">. c #3B221E",
",. c #9B584F",
"<. c #412621",
"1. c #040302",
"2. c #53302A",
"3. c #090505",
"4. c #331D1A",
"5. c #311C1A",
"6. c #070404",
"7. c #402521",
"8. c #55312B",
"9. c #6D3E38",
"0. c #170D0D",
"q. c #7A463E",
"w. c #75433B",
"e. c #502E29",
"r. c #7B473F",
/* pixels */
"                                          ",
"            . X o O + @ # $ %             ",
"        & * = = = = = = = = - ; :         ",
"      > , = = < = = < = 1 = 2 = 3 :       ",
"    4 5 = 2 = 6 7 8 9 0 q = = = = w       ",
"    e 1 = 2 r t           y u = < = i     ",
"  p a = = 2 s               d 1 = = o     ",
"  f = 1 = 3                 g h = = = j   ",
"  k = 1 = l                   0 < 2 1 z   ",
"x c 2 1 v b                   n = 2 = m   ",
"M = = = N                       B = = = V ",
"C = = = Z                       A 2 = = S ",
"D < = 1 ;                       F = 1 < G ",
"H = = = J                       K = = = L ",
"P = = 1 I                       U = = = Y ",
"T = = = R                       E = = < W ",
"Q = = = !                       ~ = 1 < ^ ",
"k = = = /                       ( = 1 = ) ",
"Z = = = e                       _ = = < D ",
"` < = = '                       ] = = = d ",
"[ = 2 1 {                       } = = = y ",
"9 = = = |                       # 2 = =  .",
"..= 2 1 X.                    g o.= = O.4 ",
"  m = = < ..                  +.= 2 1 @.  ",
"  { = = = 0                   #.< 2 = 8   ",
"  $.= 1 = %.&.              *.=.= 2 -.;.  ",
"    Q = = = :.              >.= = = W     ",
"    +.= = = = ; x       ,.<.= 1 < 1.%     ",
"      2.< = = = 3.4.] 5.6.< = = < C       ",
"        7.= = < = = = 2 1 = 2 = 8.        ",
"          9.O = = = = = = < 0.q.          ",
"            4 w.e.D e.e.; r.              "
};
