/* XPM */
static char *_1735932630[] = {
/* columns rows colors chars-per-pixel */
"20 32 44 1 ",
"  c #A15C52",
". c #9E5A50",
"X c #7F4841",
"o c #5D352F",
"O c #502E29",
"+ c #512E29",
"@ c #5D3530",
"# c #8A4F46",
"$ c #683B35",
"% c #452823",
"& c #231412",
"* c #040302",
"= c black",
"- c #010000",
"; c #1A0E0D",
": c #864D44",
"> c #000001",
", c #190E0D",
"< c #874D45",
"1 c #060303",
"2 c #261613",
"3 c #492A25",
"4 c #623832",
"5 c #1B0F0E",
"6 c #8D5148",
"7 c #3F2420",
"8 c #5E3630",
"9 c #824A42",
"0 c #A05B51",
"q c #92534A",
"w c #1B100E",
"e c #91534A",
"r c #000100",
"t c #190E0E",
"y c #190F0D",
"u c #894E46",
"i c #79453D",
"p c #6D3E38",
"a c #140C0A",
"s c #79453E",
"d c #94544B",
"f c #412521",
"g c #6B3D36",
"h c #6B3D37",
/* pixels */
"                    ",
"                    ",
"     .XoO+O@        ",
" #$%&*==-==;        ",
":-=======>=,        ",
":=====-====,        ",
"<=-=1234-==5        ",
"67890  q=>=w        ",
"       e==r,        ",
"       e=r=,        ",
"       er>=,        ",
"       e===,        ",
"       e-=>,        ",
"       e===,        ",
"       e>==t        ",
"       e-=>;        ",
"       e=>-y        ",
"       e>==,        ",
"       e-==,        ",
"       er==,        ",
"       e==r,        ",
"       e-==;        ",
"       e=>-,        ",
"       e==r,        ",
"       e-==;        ",
"       er==,        ",
"       e===,        ",
"       e==>,        ",
" uiiiiipr==asiisiid ",
" f====-r==========g ",
" f=r>==========r=-g ",
" fr===>==>========h "
};
