/* XPM */
static char *_1735932646[] = {
/* columns rows colors chars-per-pixel */
"20 32 92 1 ",
"  c #A15C52",
". c #9B584F",
"X c #77443C",
"o c #53302A",
"O c #3C221E",
"+ c #271714",
"@ c #110A09",
"# c #040302",
"$ c #150D0B",
"% c #291715",
"& c #3E231F",
"* c #5B342E",
"= c #9C594F",
"- c #854C43",
"; c #3C221F",
": c #010000",
"> c black",
", c #000001",
"< c #120A09",
"1 c #643933",
"2 c #A05B51",
"3 c #090505",
"4 c #251513",
"5 c #000100",
"6 c #020101",
"7 c #140B0A",
"8 c #281815",
"9 c #4D2C27",
"0 c #3E2420",
"q c #2C1916",
"w c #402521",
"e c #2E1A17",
"r c #6B3D36",
"t c #9B594F",
"y c #804941",
"u c #1A0F0D",
"i c #673B34",
"p c #311C19",
"a c #99574E",
"s c #1B0F0E",
"d c #7A463E",
"f c #9E5B51",
"g c #0E0808",
"h c #834B43",
"j c #6D3E38",
"k c #2B1816",
"l c #9E5A50",
"z c #0D0706",
"x c #91534A",
"c c #6E3F38",
"v c #1D110F",
"b c #9F5B51",
"n c #190E0D",
"m c #603731",
"M c #532F2A",
"N c #693C35",
"B c #040303",
"V c #844B43",
"C c #71413A",
"Z c #010101",
"A c #040202",
"S c #5A342E",
"D c #76443C",
"F c #030102",
"G c #54302A",
"H c #79453E",
"J c #482925",
"K c #79453D",
"L c #3E2320",
"P c #77443D",
"I c #060303",
"U c #402420",
"Y c #A05C52",
"T c #7B463F",
"R c #050303",
"E c #39211D",
"W c #060503",
"Q c #321D1A",
"! c #060404",
"~ c #2F1B18",
"^ c #854C44",
"/ c #070404",
"( c #271614",
") c #9D5A50",
"_ c #8E5148",
"` c #0F0807",
"' c #201210",
"] c #9A584E",
"[ c #170D0C",
"{ c #6F3F39",
"} c #8C5047",
"| c #8A4F46",
/* pixels */
"                    ",
"                    ",
"   .XoO+@#$%&*=     ",
" -;#:>,>>>>>,:<12   ",
" 3>>,>>>:>>>>,>>4=  ",
" 3>>5678;90q:>>>>w  ",
" 3>ert      yu>,>>i ",
" py          a75>>s ",
"              d:5,6f",
"               g>5,h",
"               p>>>j",
"               k5>:X",
"              lz:>>x",
"              c>>>v ",
"             bn>5>m ",
"             M>,:nb ",
"            N>>5BV  ",
"           CZ>>:1   ",
"          CA>:>S    ",
"         DF>>>G     ",
"        H#5>>J      ",
"       K#>>5L       ",
"      PI>>>UY       ",
"     TR>>>EY        ",
"    TW,:>Q2         ",
"   T!>>,~f          ",
"  ^/>>>()           ",
" _`>>>'.            ",
"][>5>3{KKKKKKKKKHKK}",
"|5>>>>>5>>>>>>>>>>:9",
"|:5>>5>:>>:>>:5,:5,9",
"|,>>,>>>>>,>>>:>>>59"
};
