/* XPM */
static char *_1735932662[] = {
/* columns rows colors chars-per-pixel */
"20 32 109 2 ",
"   c #A15C52",
".  c #99584E",
"X  c #72413A",
"o  c #4F2D29",
"O  c #38201C",
"+  c #221411",
"@  c #0D0706",
"#  c #070504",
"$  c #1B0F0E",
"%  c #2F1B18",
"&  c #422622",
"*  c #6E3F38",
"=  c #351E1B",
"-  c #0F0807",
";  c black",
":  c #000100",
">  c #000001",
",  c #2A1715",
"<  c #834B43",
"1  c #180E0C",
"2  c #010000",
"3  c #58332D",
"4  c #180F0C",
"5  c #010100",
"6  c #090505",
"7  c #2A1815",
"8  c #361F1B",
"9  c #422621",
"0  c #4E2C28",
"q  c #452723",
"w  c #351E1C",
"e  c #71413A",
"r  c #2C1917",
"t  c #4C2C27",
"y  c #804941",
"u  c #A05B51",
"i  c #6D3E38",
"p  c #150C0B",
"a  c #070404",
"s  c #864D44",
"d  c #8E5148",
"f  c #0B0607",
"g  c #402420",
"h  c #603731",
"j  c #884E45",
"k  c #000101",
"l  c #140C0A",
"z  c #8B5047",
"x  c #010001",
"c  c #201210",
"v  c #6C3E37",
"b  c #39211D",
"n  c #9E5A50",
"m  c #7C473F",
"M  c #8A4F46",
"N  c #341E1B",
"B  c #39201D",
"V  c #864D45",
"C  c #79453D",
"Z  c #663A34",
"A  c #472824",
"S  c #241512",
"D  c #39211E",
"F  c #361F1C",
"G  c #1A0F0E",
"H  c #633932",
"J  c #0C0606",
"K  c #9B594F",
"L  c #080404",
"P  c #5D352F",
"I  c #96564D",
"U  c #76433C",
"Y  c #281715",
"T  c #3B221E",
"R  c #9F5B51",
"E  c #693C35",
"W  c #030201",
"Q  c #5F3630",
"!  c #98574D",
"~  c #221311",
"^  c #58322C",
"/  c #613831",
"(  c #492925",
")  c #5C352F",
"_  c #010101",
"`  c #874D45",
"'  c #59332D",
"]  c #814A42",
"[  c #080504",
"{  c #211311",
"}  c #844C43",
"|  c #A05C52",
" . c #271614",
".. c #844B43",
"X. c #0B0605",
"o. c #040203",
"O. c #623832",
"+. c #1E110F",
"@. c #75433C",
"#. c #91534A",
"$. c #57322C",
"%. c #97574D",
"&. c #5F3631",
"*. c #502E29",
"=. c #512E29",
"-. c #56312C",
";. c #673B34",
":. c #78453D",
">. c #9A584F",
/* pixels */
"                                        ",
"      . X o O + @ # $ % & *             ",
"  = - ; : ; ; ; ; ; > ; ; ; , <         ",
"  1 ; 2 ; ; ; ; > ; > ; ; ; ; ; 3       ",
"  4 5 ; 6 7 8 9 0 q w $ 5 ; ; ; ; e     ",
"  r t y u               i p ; 2 ; a s   ",
"                          d f : ; ; g   ",
"                            h ; ; ; 7   ",
"                            j ; k ; l   ",
"                            z x ; : c   ",
"                            v ; ; ; b   ",
"                          n c > > ; m   ",
"                        M N ; : ; B     ",
"          V C C C Z A S 2 ; : ; D n     ",
"          F ; > : ; ; 2 > ; G H         ",
"          F ; ; ; ; ; ; 2 J H K         ",
"          F ; 2 > ; : : : k ; L P       ",
"                  I j U Y > ; 2 ; T R   ",
"                          E W > ; ; Q   ",
"                            h ; ; > J ! ",
"                              ~ ; ; 2 * ",
"                              A ; 2 ; ^ ",
"                              / 2 ; ; q ",
"                              ( ; ; > 0 ",
"                              Y ; : 2 ) ",
"                            U _ ; : : ` ",
"' ]                       y [ : ; ; %   ",
"7 2 { H } .       | z E  .: ; > ; ; ..  ",
"7 ; 5 ; ; > X.{ $ o.; ; ; ; x ; ; O.    ",
"7 ; ; ; > ; > ; k : 2 ; ; ; ; +.@.      ",
"#.$.{ 2 > : ; 2 ; 5 ; ; ;  .@.          ",
"      %.@.&.*.=.-.;.:.j >.              "
};
