/* XPM */
static char *_1735932673[] = {
/* columns rows colors chars-per-pixel */
"20 32 59 1 ",
"  c #A15C52",
". c #73423B",
"X c #502E29",
"o c #71413A",
"O c #905249",
"+ c #080504",
"@ c black",
"# c #402521",
"$ c #2C1916",
"% c #010000",
"& c #673B34",
"* c #000100",
"= c #95554C",
"- c #0C0707",
"; c #341E1B",
": c #422521",
"> c #361F1B",
", c #311C1A",
"< c #683B35",
"1 c #412621",
"2 c #080405",
"3 c #92544B",
"4 c #000001",
"5 c #97574D",
"6 c #0F0807",
"7 c #603631",
"8 c #673B35",
"9 c #3D231F",
"0 c #231412",
"q c #75433C",
"w c #030101",
"e c #894E46",
"r c #99584E",
"t c #110B09",
"y c #512F29",
"u c #442722",
"i c #180E0C",
"p c #9E5B51",
"a c #7E4840",
"s c #9D5A50",
"d c #170D0C",
"f c #442723",
"g c #4A2B26",
"h c #120A09",
"j c #824A42",
"k c #020101",
"l c #75433B",
"z c #1C100E",
"x c #090505",
"c c #864C44",
"v c #623832",
"b c #3F2520",
"n c #140C0A",
"m c #79453D",
"M c #79453E",
"N c #4D2C28",
"B c #311C19",
"V c #3B221E",
"C c #412521",
/* pixels */
"                    ",
"                    ",
"            .XXXXo  ",
"           O+@@@@#  ",
"           $@%@@%#  ",
"          &@@*@@@#  ",
"         =-@@;@@@:  ",
"         >@@,<*@@1  ",
"        o@@23&4@@#  ",
"       56@47 8%*@#  ",
"       9@@0  &@4@#  ",
"      q*@we  &@@@#  ",
"     rt4%y   &@*@#  ",
"     u@%ip   &*@@#  ",
"    a%%%a    &@@*#  ",
"   sd@@f     &%@4#  ",
"   g@@hr     &*@@#  ",
"  jk@@l      &4@*#  ",
" pz@@>       8@@@#  ",
" y*@x3       &*@@#  ",
"cw@@v        &@@@#  ",
"b@@nmmmMmmmmmN@@@BmM",
"V@*4%@@%*@@@@@@@%@@@",
"V@@@@@@@4%*4@*@@*4%@",
"V@@@4@@@@*4%@@%@@%@@",
"             &@@@#  ",
"             &@%@#  ",
"             &@@@C  ",
"             &@4%#  ",
"             &4@@#  ",
"             &%@4#  ",
"             &@@@#  "
};
