/* XPM */
static char *_1735932684[] = {
/* columns rows colors chars-per-pixel */
"20 32 100 2 ",
"   c #A15C52",
".  c #9A584E",
"X  c #502E29",
"o  c #512E29",
"O  c #77443C",
"+  c #92544B",
"@  c black",
"#  c #010000",
"$  c #000001",
"%  c #000100",
"&  c #4C2C27",
"*  c #010100",
"=  c #000101",
"-  c #472924",
";  c #472925",
":  c #010001",
">  c #482924",
",  c #94544B",
"<  c #482925",
"1  c #75433C",
"2  c #5C352F",
"3  c #5C342F",
"4  c #79453E",
"5  c #96564D",
"6  c #0E0807",
"7  c #030101",
"8  c #0F0807",
"9  c #361F1B",
"0  c #8B5047",
"q  c #040202",
"w  c #9B584F",
"e  c #120A09",
"r  c #8F5149",
"t  c #94554C",
"y  c #261613",
"u  c #58332D",
"i  c #7D4740",
"p  c #8A4F46",
"a  c #9C594F",
"s  c #814A42",
"d  c #673B34",
"f  c #412521",
"g  c #1E110F",
"h  c #9D5A50",
"j  c #96554C",
"k  c #8D5048",
"l  c #341E1B",
"z  c #5A332E",
"x  c #A05C52",
"c  c #291716",
"v  c #9F5B51",
"b  c #91534A",
"n  c #0A0505",
"m  c #76433C",
"M  c #3F2420",
"N  c #4F2D28",
"B  c #57322C",
"V  c #402521",
"C  c #6B3D37",
"Z  c #361F1C",
"A  c #55312B",
"S  c #402420",
"D  c #38201C",
"F  c #4D2C27",
"G  c #92534A",
"H  c #090404",
"J  c #6D3E38",
"K  c #050302",
"L  c #7C473F",
"P  c #5F3631",
"I  c #9B594F",
"U  c #A05B51",
"Y  c #5D352F",
"T  c #492A25",
"R  c #6C3E37",
"E  c #090505",
"W  c #442723",
"Q  c #7A463E",
"!  c #8F5249",
"~  c #6A3D36",
"^  c #190E0D",
"/  c #0F0908",
"(  c #95554C",
")  c #040302",
"_  c #170D0C",
"`  c #221311",
"'  c #080504",
"]  c #050303",
"[  c #824A42",
"{  c #130B0A",
"}  c #2F1B18",
"|  c #070404",
" . c #150C0B",
".. c #532F2B",
"X. c #97564D",
"o. c #804941",
"O. c #663A34",
"+. c #532F2A",
"@. c #643933",
"#. c #884E45",
/* pixels */
"                                        ",
"  . X X o o o X X X X o X X X X X O     ",
"  + @ # @ @ @ @ @ # $ % @ % @ @ @ &     ",
"  + % % % @ @ % % @ @ $ $ @ @ $ @ &     ",
"  + @ # % @ @ * @ = @ % @ @ @ $ @ &     ",
"  + @ # % -                             ",
"  + @ $ % ;                             ",
"  + : : @ -                             ",
"  + @ # @ -                             ",
"  + @ @ @ >                             ",
"  + $ * @ -                             ",
"  , @ @ % < . 1 2 3 4 5                 ",
"  , @ $ @ 6 7 $ : % @ % 8 9 0           ",
"  + @ @ # : % @ % @ @ @ @ @ q & w       ",
"  , % @ @ @ % % @ @ @ @ @ $ @ $ e r     ",
"  t # y u i p 5 a s d f 7 % % % @ g a   ",
"  h j                   k l @ % % @ z   ",
"                          x c @ @ # 6 v ",
"                            b n @ @ @ m ",
"                              M @ @ @ N ",
"                              B @ @ # V ",
"                              C @ @ @ Z ",
"                              A @ @ @ S ",
"                              D % % @ F ",
"                            G H % @ @ J ",
"                            9 @ $ @ K . ",
"L P I                   U Y # @ @ @ T   ",
"R @ E W Q b x       ! ~ ^ @ @ % @ / (   ",
"R # @ % @ @ ) _ ` ' @ $ # @ @ % ] [     ",
"R = % @ % @ @ @ @ # @ : @ @ @ { [       ",
"G B } | @ @ @ # # # @ @ $  ...X.        ",
"      v o.O.+.X X X X @.#.              "
};
