/* XPM */
static char *_1735932694[] = {
/* columns rows colors chars-per-pixel */
"20 32 133 2 ",
"   c #A15C52",
".  c #8D5048",
"X  c #57322C",
"o  c #2A1916",
"O  c #170E0C",
"+  c #080505",
"@  c #050302",
"#  c #130A09",
"$  c #201211",
"%  c #311C19",
"&  c #4E2D28",
"*  c #8D5148",
"=  c #92534A",
"-  c #38211D",
";  c black",
":  c #000100",
">  c #010000",
",  c #7A463E",
"<  c #79453E",
"1  c #090604",
"2  c #71413A",
"3  c #844C44",
"4  c #080404",
"5  c #130B0A",
"6  c #341E1A",
"7  c #4E2C27",
"8  c #3F2420",
"9  c #1B100E",
"0  c #000101",
"q  c #000001",
"w  c #99574E",
"e  c #120A09",
"r  c #040302",
"t  c #59332D",
"y  c #95554C",
"u  c #884E45",
"i  c #3F2421",
"p  c #73423B",
"a  c #402521",
"s  c #201210",
"d  c #8A4F46",
"f  c #8B5047",
"g  c #020001",
"h  c #0A0605",
"j  c #99584E",
"k  c #442723",
"l  c #512F29",
"z  c #060503",
"x  c #97564D",
"c  c #6B3D36",
"v  c #351E1C",
"b  c #482925",
"n  c #53302A",
"m  c #834B43",
"M  c #663A34",
"N  c #55312C",
"B  c #6B3D37",
"V  c #894E46",
"C  c #A05C52",
"Z  c #241512",
"A  c #704039",
"S  c #693C36",
"D  c #070404",
"F  c #2D1A17",
"G  c #864C44",
"H  c #0D0706",
"J  c #010001",
"K  c #874D45",
"L  c #2F1B18",
"P  c #030101",
"I  c #522F2A",
"U  c #9E5B51",
"Y  c #080405",
"T  c #080504",
"R  c #211311",
"E  c #040303",
"W  c #2A1815",
"Q  c #472824",
"!  c #9F5B51",
"~  c #804941",
"^  c #2C1916",
"/  c #643933",
"(  c #77443C",
")  c #402420",
"_  c #A05B51",
"`  c #1C100E",
"'  c #613831",
"]  c #050303",
"[  c #93544B",
"{  c #74423B",
"}  c #412621",
"|  c #281715",
" . c #040202",
".. c #211411",
"X. c #1B0F0E",
"o. c #361F1C",
"O. c #120A0A",
"+. c #38201C",
"@. c #3E2320",
"#. c #55302C",
"$. c #2C1917",
"%. c #7E4840",
"&. c #170D0C",
"*. c #94554C",
"=. c #140C0B",
"-. c #100908",
";. c #613832",
":. c #54302A",
">. c #371F1C",
",. c #492A25",
"<. c #090605",
"1. c #75433B",
"2. c #512E29",
"3. c #502E29",
"4. c #010100",
"5. c #442722",
"6. c #94544B",
"7. c #864D44",
"8. c #613731",
"9. c #2A1816",
"0. c #231412",
"q. c #180F0C",
"w. c #98574D",
"e. c #060404",
"r. c #5B342E",
"t. c #55312B",
"y. c #090505",
"u. c #291715",
"i. c #8E5148",
"p. c #9D5A50",
"a. c #6D3E37",
"s. c #54302B",
"d. c #683C35",
/* pixels */
"                                        ",
"              . X o O + @ # $ % & *     ",
"          = - ; ; : : ; ; ; > ; ; > ,   ",
"        < 1 ; ; ; > ; ; ; ; ; ; ; ; 2   ",
"      3 4 ; ; ; ; ; 5 6 7 8 % 9 0 q 2   ",
"    w e q ; > r t y             u i p   ",
"    a ; 0 ; s d                         ",
"  f g ; ; h j                           ",
"  k : ; q l                             ",
"w z ; : 4 x                             ",
"c ; ; ; v                               ",
"b ; ; ; n       m M N B V C             ",
"Z ; ; ; A   S s ; ; ; : ; D F G         ",
"H : ; J K L ; ; ; ; ; ; q > ; P I U     ",
"P q ; Y % ; ; ; ; T R E ; ; ; > ; W     ",
"; ; ; ; ; q ; Q V     ! ~ ^ ; ; ; ; /   ",
": q : q ; > (               n ; : ; H x ",
": ; ; q > )                 _ ` ; q : ' ",
"q > : ; ] [                   { ; ; ; } ",
"T ; ; ; |                        .; ; ..",
"X.; ; ; o.                      O.: q E ",
"+.; ; ; @.                      ` ; > : ",
"#.> > ; $.                      4 ; > q ",
"%.; ; ; &.                    *.; ; ; =.",
"  -.> > > G                   ;.; ; q L ",
"  :.; ; ; >.                U 5 q q ; ,.",
"  w <.; q > 1.              2.; ; q r d ",
"    3.4.; ; ; 5.6.      7.W ; 0 ; ; 8.  ",
"    ! 9.4.; ; : ; 0.k q.; ; ; : ; 6     ",
"      w.Z ; ; ; ; ; ; ; ; ; ; e.r.C     ",
"        _ t.y.; q ; ; ; ; ; u.i.        ",
"            p.a.3.2.s.d.%.6.            "
};
