/* XPM */
static char *_1735932705[] = {
/* columns rows colors chars-per-pixel */
"20 32 55 1 ",
"  c #A15C52",
". c #522F2A",
"X c #502E29",
"o c #512E29",
"O c #56312C",
"+ c #030202",
"@ c black",
"# c #000100",
"$ c #010000",
"% c #000001",
"& c #0B0606",
"* c #040203",
"= c #1E1110",
"- c #5A332E",
"; c #97574D",
": c #94554C",
"> c #5A342E",
", c #341E1A",
"< c #180E0C",
"1 c #72413A",
"2 c #7F4841",
"3 c #100908",
"4 c #A05B51",
"5 c #402521",
"6 c #4E2C27",
"7 c #9C594F",
"8 c #070404",
"9 c #8D5048",
"0 c #663A34",
"q c #281714",
"w c #271714",
"e c #8D5148",
"r c #4C2B27",
"t c #0D0706",
"y c #714039",
"u c #190F0D",
"i c #321C19",
"p c #59332E",
"a c #010101",
"s c #190E0C",
"d c #7B463F",
"f c #3D231F",
"g c #4D2C27",
"h c #9A584E",
"j c #050303",
"k c #623832",
"l c #241412",
"z c #894E46",
"x c #482925",
"c c #9E5A50",
"v c #7E4840",
"b c #6D3E37",
"n c #190E0D",
"m c #2E1A17",
"M c #59332D",
/* pixels */
"                    ",
"                    ",
" .XXXXXoXXXXXXXXXXXO",
" +@@#@$@@$#%$#@$@@@&",
" *@#@@@@@#@@#%@@@@@=",
" +@%@@%$#@@#@@#%@#@-",
"              ;+@@+:",
"              >#@$, ",
"              <@@@1 ",
"             2%@@34 ",
"             5@@@6  ",
"            78@%@9  ",
"            0@@@q   ",
"            w@$@0   ",
"           e@@@87   ",
"           r@@@5    ",
"          4t#@@2    ",
"          y@@$u     ",
"          i@$#p     ",
"         :a$@+:     ",
"         O@@@,      ",
"         s@%$1      ",
"        d@@$34      ",
"        f@@@g       ",
"       hj@@%9       ",
"       k@#@q        ",
"       l@@@0        ",
"      z@%@87        ",
"      x%$@5         ",
"     ct@#@v         ",
"     b$@%n          ",
"     m@@@M          "
};
