/* XPM */
static char *_1735932715[] = {
/* columns rows colors chars-per-pixel */
"20 32 132 2 ",
"   c #A15C52",
".  c #824A42",
"X  c #492925",
"o  c #331D1B",
"O  c #201210",
"+  c #0A0605",
"@  c #090505",
"#  c #1D110F",
"$  c #321D19",
"%  c #472924",
"&  c #804941",
"*  c #844C43",
"=  c #321D1A",
"-  c black",
";  c #000001",
":  c #000100",
">  c #010000",
",  c #2D1A17",
"<  c #7A463E",
"1  c #010102",
"2  c #704039",
"3  c #8F5149",
"4  c #0D0706",
"5  c #000101",
"6  c #39211D",
"7  c #5D3530",
"8  c #6F3F39",
"9  c #72413A",
"0  c #5E3630",
"q  c #3C221E",
"w  c #080505",
"e  c #894E46",
"r  c #492A25",
"t  c #0B0605",
"y  c #7E4840",
"u  c #834B43",
"i  c #100908",
"p  c #402420",
"a  c #010100",
"s  c #79453E",
"d  c #170D0C",
"f  c #99584E",
"g  c #010101",
"h  c #160C0B",
"j  c #201211",
"k  c #91534A",
"l  c #73423B",
"z  c #331D1A",
"x  c #3F2420",
"c  c #6A3D36",
"v  c #6F4039",
"b  c #180D0C",
"n  c #221311",
"m  c #884E45",
"M  c #261613",
"N  c #7C473F",
"B  c #814A42",
"V  c #1C100E",
"C  c #190E0D",
"Z  c #98574D",
"A  c #9B584F",
"S  c #79453D",
"D  c #633932",
"F  c #0F0807",
"G  c #613832",
"H  c #864C44",
"J  c #97574D",
"K  c #9A584E",
"L  c #864D44",
"P  c #643933",
"I  c #100A08",
"U  c #5D352F",
"Y  c #77443C",
"T  c #291715",
"R  c #8B5047",
"E  c #351F1B",
"W  c #311C19",
"Q  c #2B1916",
"!  c #97564D",
"~  c #94544B",
"^  c #080504",
"/  c #4B2B26",
"(  c #905249",
")  c #4F2D29",
"_  c #1B0F0E",
"`  c #2E1A17",
"'  c #96564D",
"]  c #412521",
"[  c #241513",
"{  c #75433C",
"}  c #9D5A50",
"|  c #A05B51",
" . c #6B3D36",
".. c #38201D",
"X. c #6E3F38",
"o. c #1B100E",
"O. c #8B4F47",
"+. c #130B0A",
"@. c #020101",
"#. c #020201",
"$. c #0D0807",
"%. c #0C0706",
"&. c #030202",
"*. c #281715",
"=. c #1F1211",
"-. c #442722",
";. c #3B221F",
":. c #452724",
">. c #3B221E",
",. c #5F3631",
"<. c #854C44",
"1. c #57322C",
"2. c #0A0506",
"3. c #623832",
"4. c #683B35",
"5. c #120A09",
"6. c #8A4F46",
"7. c #1E110F",
"8. c #38201C",
"9. c #211411",
"0. c #060403",
"q. c #874D45",
"w. c #251513",
"e. c #7F4841",
"r. c #140C0A",
"t. c #693C35",
"y. c #A05C52",
"u. c #92534A",
"i. c #6D3E37",
"p. c #5A332E",
"a. c #58322D",
"s. c #6B3D37",
/* pixels */
"                                        ",
"          . X o O + @ # $ % &           ",
"      * = - - ; : > - : - - > , &       ",
"    < 1 - : - - - - - - - - - > - 2     ",
"  3 4 5 - - : 6 7 8 9 0 q : - - ; w e   ",
"  r : - - t y             u i - ; > p   ",
"  O a - - 9                 s > - - d   ",
"f g : - h                     j - : : k ",
"l - : - z                     x ; ; ; c ",
"s - - - z                     p ; - - v ",
"k - - - b                     n - g - m ",
"  M - - : N                 B > > - V   ",
"  & - - - C Z             A O - ; - S   ",
"    D g : - F G H J K L P I - : - U     ",
"      Y T g - - - : ; - - - > M 9       ",
"        R p - - > - - - - - E L         ",
"    A W - 5 : - - - - - - : - > Q !     ",
"  ~ O : - ; ^ / 2 ( ~ 9 ) t : - - _ k   ",
"  ` - - - 6 '             f ] : - : [   ",
"{ - - - C }                 | O - - -  .",
"..- - - X.                    S - ; - W ",
"o.- - - O.                    f - - - +.",
"@.- - #.|                       $.> - > ",
"%.- - - f                     | g - - &.",
"*.- > - <                     * - - - =.",
"-.- - ; ;.                    :.- - - >.",
",.- - - : N                 <.> - - - 1.",
"J C - a : 2.3.            4.4 > - - 5.' ",
"  6.@ a - - - 7.8.% r ..9.- ; - : 0.q.  ",
"    . w.- - > - ; - - - : - - - 7.e.    ",
"        X.d ; - - ; - - - - r.t.y.      ",
"            u.& i.p.a.s.y k y.          "
};
