/* XPM */
static char *_1735932728[] = {
/* columns rows colors chars-per-pixel */
"20 32 119 2 ",
"   c #A15C52",
".  c #884E45",
"X  c #5D3530",
"o  c #402520",
"O  c #231512",
"+  c #040303",
"@  c #0E0807",
"#  c #1F1210",
"$  c #422621",
"%  c #7D473F",
"&  c #9B594F",
"*  c #4A2A26",
"=  c #020101",
"-  c #000100",
";  c black",
":  c #010000",
">  c #2A1816",
",  c #92534A",
"<  c #7D4740",
"1  c #150C0B",
"2  c #000001",
"3  c #0B0606",
"4  c #874D45",
"5  c #96564D",
"6  c #0E0706",
"7  c #2F1B18",
"8  c #532F2A",
"9  c #71413A",
"0  c #5B342E",
"q  c #39201D",
"w  c #080404",
"e  c #120A09",
"r  c #94544B",
"t  c #3E2320",
"y  c #140C0A",
"u  c #7C473F",
"i  c #8D5148",
"p  c #251513",
"a  c #351E1B",
"s  c #7A463E",
"d  c #030203",
"f  c #905249",
"g  c #9F5B51",
"h  c #804941",
"j  c #472924",
"k  c #6C3E37",
"l  c #38201C",
"z  c #201310",
"x  c #040302",
"c  c #060303",
"v  c #99584E",
"b  c #1E120F",
"n  c #6D3E37",
"m  c #120B09",
"M  c #452723",
"N  c #130B0A",
"B  c #39211D",
"V  c #2D1A17",
"C  c #010001",
"Z  c #9E5B51",
"A  c #231412",
"S  c #201210",
"D  c #8A4F46",
"F  c #050303",
"G  c #38201D",
"H  c #502E29",
"J  c #76433C",
"K  c #000101",
"L  c #91534A",
"P  c #170E0C",
"I  c #281715",
"U  c #160C0B",
"Y  c #8F5149",
"T  c #271614",
"R  c #834B43",
"E  c #341E1A",
"W  c #683C35",
"Q  c #75433B",
"!  c #070504",
"~  c #070404",
"^  c #704039",
"/  c #080504",
"(  c #79453E",
")  c #844C43",
"_  c #56312C",
"`  c #100908",
"'  c #010100",
"]  c #090605",
"[  c #472824",
"{  c #2C1917",
"}  c #512E29",
"|  c #512F29",
" . c #1B100E",
".. c #78453D",
"X. c #72413A",
"o. c #0F0907",
"O. c #532F2B",
"+. c #6A3D36",
"@. c #99574E",
"#. c #97564D",
"$. c #9D5950",
"%. c #A05C52",
"&. c #4E2D28",
"*. c #643933",
"=. c #73423B",
"-. c #060403",
";. c #8C5047",
":. c #8B5047",
">. c #6B3D37",
",. c #2B1917",
"<. c #2C1916",
"1. c #211311",
"2. c #0B0605",
"3. c #2B1916",
"4. c #010101",
"5. c #9E5A50",
"6. c #010102",
"7. c #361F1B",
"8. c #864D44",
/* pixels */
"                                        ",
"                                        ",
"          . X o O + @ # $ %             ",
"      & * = - ; : ; ; - ; ; > ,         ",
"    < 1 ; ; ; ; ; ; 2 ; ; ; ; 3 4       ",
"  5 6 ; ; - ; 7 8 9 0 q w ; ; ; e r     ",
"  t : ; - y u           i p : ; ; a     ",
"s 2 : ; d f               g 1 ; ; ; h   ",
"q ; ; ; j                   k ; ; ; l   ",
"z ; ; ; h                     x - ; c & ",
"x ; ; ; v                     b ; ; ; n ",
": ; - m                       l 2 ; : M ",
"; ; ; N                       B ; ; ; V ",
"x ; : C Z                     A ; 2 ; 1 ",
"S ; ; ; D                     3 ; : ; F ",
"G ; ; ; H                   J 2 ; K 2 - ",
"9 ; : ; x L               g P 2 ; ; ; : ",
"  I ; - ; U s           Y T : : ; ; ; : ",
"  R : - ; ; ; E W 5 Q $ w - 2 ! ~ ; 2 ; ",
"    H : ; ; : : - ; ; ; ; ; = ^ ; ; : / ",
"      u y ; C ; : ; ; ; ; 3 ( ) ; ; ; N ",
"        & _ B T ` C ' ] [ f   k ; 2 2 { ",
"                              } ; ; ; | ",
"                               .- ; ; ..",
"                            X.; : - o.Z ",
"                            S ; ; ; O.  ",
"                          +.; K ; @ @.  ",
"  #.$.                %.&.; ; ; ; *.    ",
"  =.-.l n ;.%.    :.>.,.; 2 2 ; <.      ",
"  =.; ; ; 2 c 1.2.- 2 ; ; ; ; 3.&       ",
"  =.; - 2 ; ; ; ; ; : 2 C 4.* 5.        ",
"  . I = 2 ; ; - C 2 ; 6.7.8.            "
};
