/* XPM */
static char *_d5e02d02fe744d4b81d4df7368b6c28zHxgksVVyrotgTUM[] = {
/* columns rows colors chars-per-pixel */
"32 32 12 1 ",
"  c #2A060E",
". c #2A070E",
"X c #2B060E",
"o c #2A060F",
"O c #2B060F",
"+ c #3A0911",
"@ c #811426",
"# c #A11B31",
"$ c black",
"% c white",
"& c #2B070E",
"* c #2A070F",
/* pixels */
"   .X X . . o  .                ",
"   o    ..  X   .O.       X     ",
"   . X .     +++++++            ",
"    X       +@######+    .  X   ",
" o    Xo  O+@###++++#+X      o X",
"   o o    +@###+$$$$+#+o       X",
"       o X+@##+$$$$$$+#+        ",
" . X     +@@##+$$$$$$+#+ X   X  ",
".o  X    +@@@#+$%$$$%+#+  o  . X",
"         +@+@#+$%$$$%+#+  XX   X",
".         ++@#+$$$$$$+@+o XX    ",
"          .+@@#+$$$$$+@+.      X",
" .   o     X+@@@+$$$+@+     o   ",
"           +@++@@+++@+ o  X   o ",
". X    o  +@#########@+O        ",
".    X    +@#########@+X      . ",
" XX    X.+@###########+ &  X o  ",
"         +@###########+   . o.. ",
".  .    o+@######@####@+ .    o ",
"o       +@@#####@+@##@@+   X    ",
"X oX    +@@@#@#@@+@@#@@+  O  *  ",
"X .     +@@@@#@@+$+@@@+  X      ",
"    o o +@+@@@@+$$+@@++  o .   o",
" o       ++++@@+$$$+@@+         ",
" X X  .  .   +++$$$+++        X ",
"XX  o Xo       $$$$      o   o  ",
"  o    .   Xo   $$    X  o      ",
"          X .  $ $          &   ",
"X   o   .    X   $ ..o          ",
" X   .O o  .. o    o    X     . ",
"X  o    .       X  &o      X    ",
" o           .               X  "
};
