/* XPM */
static char *ranime41735850635[] = {
/* columns rows colors chars-per-pixel */
"32 32 12 1 ",
"  c #2A060E",
". c #2A070E",
"X c #2A060F",
"o c #2B060E",
"O c #2B060F",
"+ c #3A0911",
"@ c #A11B31",
"# c #811426",
"$ c black",
"% c white",
"& c #2B070E",
"* c #2A070F",
/* pixels */
"                .  X . . o o.   ",
"     o       .O.   o  ..    X   ",
"             .  o       . o .   ",
"   o  .    .+++++++        o    ",
"o X      o +@@@@@@#+XO  Xo    X ",
"o       X +@++++@@@#+     X X   ",
"         +@+$$$$+@@@#+o X       ",
"  o   o +@+$$$$$$+@@#+X     o . ",
"o .  X  +@+$$$$$$+@@##+    o  X.",
"o   oo  +@+%$$$%$+@####+        ",
"    oo X+@+%$$$%$+@#+##+       .",
"o      .+#+$$$$$$+@#+++         ",
"   X    +#+$$$$$+@##+     X   . ",
" X   o  X+#+$$$+###++           ",
"        O++#+++##++@#+  X    o .",
" .      o+#@@@@@@@@@##+   o    .",
"  X o  & +@@@@@@@@@@@#+.o    oo ",
" ..X .   +@@@@@@@@@@@##+        ",
" X    .  +@@@@#@@@@@@@#+    .  .",
"    o   o+#@@#+#@@@@@@##+      X",
"  *  O  .+#@##+##@#@@###+   oX o",
"      o  +##@#++##@#@@#+     . o",
"X   . X  +####+$+#####+o X X    ",
"          +#++$$$+#+#+        X ",
" o         ++$  $$+ + .  .  o o ",
"  X   X     $$  $$      Xo X  oo",
"      X  o    $.$  Xo   .    X  ",
"   &           $$  . o          ",
"          X..     o    .   X   o",
" .     o    X    X ..  X O.   o ",
"    o      X&  o       .    X  o",
"  o               .           X "
};
