/* XPM */
static char *_71a4a8a25634524c000b63046bb0e7c8VgcxHDrnSFr6nVp[] = {
/* columns rows colors chars-per-pixel */
"32 32 22 1 ",
"  c #2A060E",
". c None",
"X c #2A070E",
"o c #16121A",
"O c #A6653A",
"+ c #DF974C",
"@ c #E17738",
"# c #FCD64B",
"$ c #E7F3F3",
"% c #2A060E",
"& c #2A060E",
"* c #270810",
"= c #250911",
"- c #210C14",
"; c #1B0F17",
": c #953129",
"> c #2A060E",
", c #2A060E",
"< c #2A060E",
"1 c #2A060E",
"2 c #2A060E",
"3 c #2A060E",
/* pixels */
"                                ",
"                                ",
"                                ",
"                                ",
"                                ",
"                                ",
"            .. ...    ..        ",
"           XX oooo              ",
"            ooO+++oo            ",
"          oo@##$$#@Ooo          ",
"         oO@#####$$#O+o         ",
"       X o@####@@@#$#Oo  .      ",
"        o@##@O++OO@#$#+o        ",
"      % o@##+++##+O@$#Oo        ",
"      &oO@#@++O#$++O#$#+*       ",
"      .o+@#@++O#$++O#$#+=       ",
"       o+@#@++O@$++O####-.      ",
"       o+@@@++O@#++#@@@#;.      ",
"        o::@#++OO+O#@@Oo >      ",
"      . oO:@@#++++#@@@Oo ,      ",
"         oO::@###@@@@Oo  &      ",
"         o+O::::@@::OOo  >      ",
"          oo+O::::OOoo          ",
"            ooOOOOoo            ",
"              oooo              ",
"          .%<11223333,%.        ",
"                                ",
"                                ",
"                                ",
"                                ",
"                                ",
"                                "
};
