/* XPM */
static char *enemy_left1736342969[] = {
/* columns rows colors chars-per-pixel */
"32 32 15 1 ",
"  c #2A060E",
". c #2A070E",
"X c #2B060E",
"o c #2A060F",
"O c #2B060F",
"+ c #2B070E",
"@ c #B0CBF5",
"# c #588AE0",
"$ c #3A5B94",
"% c #234075",
"& c #D2E0F7",
"* c #F57878",
"= c #E84646",
"- c #AB293F",
"; c #2A070F",
/* pixels */
"   .X X . . o  .                ",
"   o    ..  X   .O.       X     ",
"   . X .       X  .             ",
"    X            +  .    .  X   ",
" o    Xo  Oo      +   X      o X",
"   o o       o   o     o       X",
"       o X      o   o           ",
" . X     o +X      X ..X X   X  ",
".o  X  @@@@@@@@@@@    o.  o  . X",
"     @@##$$$%@@@@#@@@     XX   X",
".   @#$$$$$%@&&%%%@@#@  o XX    ",
"   @#$$$$$%@&@%%%%$$##@ .      X",
" .@#$$$$$%%@@%%%%%%%$$#@    o   ",
"  @#$$**=%%%%%%%%%%%%$$#  X   o ",
". #$$%-=%%%%%%%%%%%%%%$#        ",
".  #$%%%%%%%%%%%%%%%%%$#      . ",
" XX##$$X$$%%%%%%%%%%%%$$#  X o  ",
"   # #   $#%#%%%%%%%%%%$$#. o.. ",
".  . #  o.#$%#%%%%%%%%%$$$#   o ",
"o    $#   %#%%%%%%%%%%%$$$#X    ",
"X oX  #   %#%%%%%%%%%%%%$$$# ;  ",
"X .   #   %#%%%%%%%%%%%%$$$#    ",
"    o # X %#%%%%%%%%%%%%%$$#   o",
" o     # %%#$%%%%%%%%%%%%$$#    ",
" X X  .#%%%%#%%%%%%%%%%%$$$$# X ",
"XX  o #%%%%%#$$$$$$$$$$$$$$$#o  ",
"  o  #$###$$$$$$$$$$$$$$$$####  ",
"  ############################  ",
"X   o   .    X     ..o          ",
" X   .O o  .. o    o    X     . ",
"X  o    .       X  +o      X    ",
" o           .               X  "
};
