/* XPM */
static char *enemy_right1736342952[] = {
/* columns rows colors chars-per-pixel */
"32 32 15 1 ",
"  c #2A060E",
". c #2A070E",
"X c #2A060F",
"o c #2B060E",
"O c #2B060F",
"+ c #2B070E",
"@ c #B0CBF5",
"# c #588AE0",
"$ c #234075",
"% c #3A5B94",
"& c #D2E0F7",
"* c #E84646",
"= c #F57878",
"- c #AB293F",
"; c #2A070F",
/* pixels */
"                .  X . . o o.   ",
"     o       .O.   o  ..    X   ",
"             .  o       . o .   ",
"   o  .    .  +            o    ",
"o X      o   +      XO  Xo    X ",
"o       X     X   X       X X   ",
"           X   X      o X       ",
"  o   o o.. o      o+ X     o . ",
"o .  X  .X    @@@@@@@@@@@  o  X.",
"o   oo     @@@#@@@@$%%%##@@     ",
"    oo X  @#@@$$$&&@$%%%%%#@   .",
"o      . @##%%$$$$@&@$%%%%%#@   ",
"   X    @#%%$$$$$$$@@$$%%%%%#@. ",
" X   o  #%%$$$$$$$$$$$$*==%%#@  ",
"        #%$$$$$$$$$$$$$$*-$%%# .",
" .      #%$$$$$$$$$$$$$$$$$%#  .",
"  X o  #%%$$$$$$$$$$$$%%o%%##oo ",
" ..X .#%%$$$$$$$$$$#$#%   # #   ",
" X   #%%%$$$$$$$$$#$%#.X  # .  .",
"    o#%%%$$$$$$$$$$$#$   #%    X",
"  ; #%%%$$$$$$$$$$$$#$   #  oX o",
"    #%%%$$$$$$$$$$$$#$   #   . o",
"X   #%%$$$$$$$$$$$$$#$ o # X    ",
"    #%%$$$$$$$$$$$$%#$$ #     X ",
" o #%%%%$$$$$$$$$$$#$$$$#.  o o ",
"  X#%%%%%%%%%%%%%%%#$$$$$# X  oo",
"  ####%%%%%%%%%%%%%%%%###%#  X  ",
"  ############################  ",
"          X..     o    .   X   o",
" .     o    X    X ..  X O.   o ",
"    o      X+  o       .    X  o",
"  o               .           X "
};
