/* XPM */
static char *_0b478754f5c4288839e7e89ef417d74EY2POV8t5z7e1GiT[] = {
/* columns rows colors chars-per-pixel */
"128 64 10 1 ",
"  c #2A070E",
". c white",
"X c #FEFFFE",
"o c black",
"O c #FFFEFF",
"+ c #FEFEFF",
"@ c #FEFFFF",
"# c #FFFFFE",
"$ c #FFFEFE",
"% c #FEFEFE",
/* pixels */
"                                                                                                                                ",
"                                                    .Xo O.  .+@...  +O   @#                                                     ",
"                                                    .#  .#  $@.@..  .#   .#                                                     ",
"                                                    .@  .%  #.  @.  #.   .@                                                     ",
"                                                    ....@@  X#  O.  ..   .@                                                     ",
"                                                    ...O$#  .X  ..  ..   ..                                                     ",
"                                                      ..    .+  @.  .#   ..                                                     ",
"                                                      O.    @@  ..  .#   #.                                                     ",
"                                                      %.    @#  @.  O.   $O                                                     ",
"                                                      .O    #.  .@  @.   ..                                                     ",
"                                                      ..    ..##.+  @##@.X@                                                     ",
"                                                      ..    +.#..$  .#.O$..                                                     ",
"                                                                                                                                ",
"                                                                                                                                ",
"                                                                                                                                ",
"    .......                        ...@#@#..#.......O....##.....   .#.........##..OO.....#....#  .O.#........O@....O...#....    ",
"    ....O##                        .......@#..####..@.....#....@   .@.O.........@........O.....  .........#.................    ",
"    ..@.OO.                        .@.....#........#..O..O.O....   ...+....#.........O...+@....  @...............@..........    ",
"    .$X@#..                        ...#....@@..................@   .....O.#...$....O.....O@.O..  .#........@..............#.    ",
"    ..@....                        @.#.@@X#.....@.....O.....O..@   .....O....#................#  ............#...@..........    ",
"    .@....#                        ...#...#.....O...............o  ......O..@....#..........#..  ........$.@O..#O...#..O....    ",
"    @......                        #......@.#.......#.+......#..   .......                                  .......             ",
"    ...#...                        .....@.               .#.O...   ..O....                                  .......             ",
"    .#....O                        O.....O               @..#...   O.#....                                  .......             ",
"    ...%##.                        ....@.O               .......   ...O...                                  .......             ",
"    .......                        .......               @##....   ..O....                                  .......             ",
"    ......@                        ..O.$#.               .@.....   .......                                  .......             ",
"    ....#O.                        .OX....               ....$..   .......                                  .......             ",
"    ......#                        .@@X#..               ..#O...   ..+..O.                                  .......             ",
"    @..#...                        .O..#O+               .O.....   .......                                  .......             ",
"    .O....@                        #..#...               .O#.OO.   @......                                  .......             ",
"    ..X..#.                        +...@.O               .O.$.@.   ...#...                                  .......             ",
"    ..#...O                        .O.....               .......   .................$...........o           ......O             ",
"    .....O.                        #......               ......O   #........@...................            .......             ",
"    ..#OO.@                        @..@@..               O......   #..O.#.................O...@.            .......             ",
"    .#@....                        ......O               ..O.@.O   .O...........................            .......             ",
"    ..#....                        .O.@..O               @.O....   ..@.@.......O...O.O.#........            ..#....             ",
"    ...#...                        #......               ......O   ....+....................O...            .......             ",
"    O.....O                        O...O#.               ##..OO.   ......@.#....................            .......             ",
"    .+$....                        .....#.               ....@..                         O......            .......             ",
"    ...@.$X                        ...@##.               .@@.X@#                         @......            .......             ",
"    .......                        ......#               .O...+.                         .....@.            .......             ",
"    ......$                        .......               @..@O..                         .......            .......             ",
"    .@...O.                        .......               ..@.O..                         .O.....            .......             ",
"    O..@..O                        .......               ....#.#                         ..#....            .......             ",
"    .#.....                        .......               .....O.                         ...#@..            .......             ",
"    .@O....                        #....#.               ......#                         .O.....            .......             ",
"    .......                        O.#....               .@....@                         .O..@.O            .......             ",
"    O#O.#+O                        ...#..+               ..O.O..                         .....O.            .......             ",
"    ...O..#                        .......               O..O...                         .......            .......             ",
"    .......                        ..#....               ...O@..                         .@.....            .......             ",
"    .......                        ..O...O               .$#....                         .O.....            .O.....             ",
"    ..$@O+.                        O@.....               .......                         .......            .......             ",
"    .....O...#@...@$..@...@O$O#@$  ....#......#..@@+....@.@..#..   @....................@.......            .......             ",
"    O##....O.$O.#..##.@..........  #...O.#..+..................O   ...O...........$..@...#@...@.            .......             ",
"    .#O.X...O#.........@O.O..#..$  ...O....O.O.....O.#.#.O......   @...@@..@....O.O............O            .......             ",
"    ..X...O@O......X..@..#O..@.@.  O#.O@....@..#.X..@.O.$.......   ................O......#.....            .......             ",
"    .......@.O....O....X.OOO...#.  O......@.#..#.....#..........   ............O......#.........            .......             ",
"    ....#O@O#...O...OO#@@......#O  .#...#...#O.O..#..##.#......#   ......@..#@.....#............            .......             ",
"    .O..O.@.@O.......XO#O..O...@.  .O...@.O......O...#..........   ..................#........+.            .......             ",
"                                                                                                                                ",
"                                                                                                                                ",
"                                                                                                                                ",
"                                                                                                                                "
};
