/* XPM */
static char *_a50632c000e41c3c02f80f649ae1e4b32K6XZPW3RKdvhy6[] = {
/* columns rows colors chars-per-pixel */
"32 32 9 1 ",
"  c black",
". c #2A060E",
"X c #2C070F",
"o c #2C080E",
"O c #2C0810",
"+ c #3B0911",
"@ c #801427",
"# c #A01B30",
"$ c #FFFFFE",
/* pixels */
"................................",
".........X......................",
"............       .............",
"........... @###### ............",
".......o.. @###++++# ...........",
"......... @###+    +# ..........",
"......... @##+      +# .........",
"........ @@##+      +# .........",
".......O @@@#+ $   $+# .........",
"........ @+@#+ $   $+# .........",
"........ @+@#+      +@ .........",
".........  @@#+     +@ .........",
"........... @@@+   +@ ..........",
"............  @@+++@ ...........",
"........... @@@#####@ ..........",
".......... @#########@ .........",
".......... @#########@ .........",
".......... ########### .........",
"......... @########### .........",
"......... @######@####@ ........",
"......... @######@####@ ........",
"......... @#####@+@##@@ ........",
"........ @@@#@#@@+@@#@@ ........",
"........ @@@@#@@+ +@@@@ ........",
"........ @+@@@@+  +@@+@ ........",
"......... +@+@@+   +@@ .........",
"..........      ..    ..........",
".............  .... ............",
".............. .... ............",
".............. .... ............",
"................................",
"................................"
};
