/* XPM */
static char *d9d0393e55d44b6caac326b4bc6563e3o18sww8aMQGJg4Q9[] = {
/* columns rows colors chars-per-pixel */
"32 32 67 1 ",
"  c #2A060E",
". c #2A070E",
"X c #E07A50",
"o c #E07B51",
"O c #E17B50",
"+ c #E07B50",
"@ c #2B060F",
"# c #2B060E",
"$ c #2A060F",
"% c #E17A50",
"& c #E17B51",
"* c #E17A51",
"= c #2A070F",
"- c #E07A51",
"; c #A84110",
": c #A94110",
"> c #A94111",
", c #A84111",
"< c #A94010",
"1 c #A84011",
"2 c #A84010",
"3 c #2B070E",
"4 c #A94011",
"5 c #0D1216",
"6 c #0C1317",
"7 c #0D1217",
"8 c #0C1316",
"9 c #0C1217",
"0 c #0C1216",
"q c black",
"w c #801427",
"e c #A11B31",
"r c #A11A30",
"t c #A01B30",
"y c #A01B31",
"u c #A11A31",
"i c #811427",
"p c #3B0911",
"a c #3B0910",
"s c #3A0911",
"d c #3A0810",
"f c #2B070F",
"g c #000100",
"h c #811426",
"j c #010001",
"k c #010000",
"l c #3B0811",
"z c #0D1317",
"x c #801426",
"c c #3B0810",
"v c #010100",
"b c #0D1316",
"n c #A11B30",
"m c #3A0910",
"M c #3A0811",
"N c #811527",
"B c #FFFFFE",
"V c #000001",
"C c #000101",
"Z c #FEFEFF",
"A c #811526",
"S c #A01A31",
"D c #FFFEFE",
"F c #010101",
"G c #801526",
"H c #A01A30",
"J c #801527",
/* pixels */
"    .    .   XoOOO+   @#$  #$   ",
"  .      $%O&O%O&+%+&O #$       ",
"#   . #$O*o+%&X+&*Oo*+oO  $#  .#",
" =     %%%-+;:>,><:>OXo&&.  .#  ",
"     #+&*&:,<>,,,1>,>2+O&&  @#$ ",
"  .3.OO*,411>1:,;41,,,,:-**  #3$",
"$ = &*O1;>4,,567890,,;>,2XO&=#.$",
"$ $&*+,:,;,qwertyruq8><<,2X*&.  ",
"   OO;>>,;qiyrtpasdeq6,;,;:%Of@ ",
" @%O;1>:<gheyupjkjgluq5>,>;<O+  ",
"  O:1;2>zkxteckkqjvklyk61,>;>%# ",
"  &,,>,bqhiynmggqkjqMtv071,>1O$ ",
"$%,,1;bzqwhNedkBVvCZdnV799,;1<O ",
" O,4<,66jAdhSpqBVgjDprq066,;1,O ",
" O2,,667qiMAnlFqqCCjshVz869;>>+.",
"#&,<;99065gAheMqkjCvMxV89792;,O.",
" +1>,696669qhxhakFCphVb696z,;,* ",
".,,,,b858699qkhGpmMAqz6809521,, ",
" >,11656678qiwGerSnHGqz5z6z>2;; ",
"$>>416888zqGerueynttthqz967,1;4 ",
" >;4,z8zz7VitSureeuHuiV60z8>,>,.",
"#4;4,z8668qyHetHyStyeSk668z2:4; ",
" 1:,1b996kNnutnyueHutrV56z81;,1.",
"#,1,47z69gGuntnteJyueSJqb76:22,=",
" ,11:5z6zqiSnnuSrJeeSHij778>4;2#",
" :<,:z066qhertSyGlJtnNGq7994,>; ",
" 42,;679qNANexyiilJwrGiq0681:4> ",
" 2,:,96bqiGNJyxGMVmwwNiqb681;,,$",
" 2>1,bz0qxawGxNaVqMiNcwqz582>,1 ",
".,:1:6067qmAsNilqCCswhqb6994>4: ",
".>;1289669CqgqqV6zCqgqzb965,2;;=",
" 42<198#     Vk  = V  .  6z,>2; "
};
