/* XPM */
static char *_3a7aab0e257421ea678d21f9e161241mCsXtlOJs6plMQM2[] = {
/* columns rows colors chars-per-pixel */
"32 32 49 1 ",
"  c #2A060E",
". c #2A060F",
"X c #2B060E",
"o c #2A070E",
"O c #2B070E",
"+ c #2B060F",
"@ c #2B070F",
"# c #2A070F",
"$ c #2C070F",
"% c black",
"& c #010000",
"* c #000100",
"= c #A11A31",
"- c #A11A30",
"; c #A01B31",
": c #A01B30",
"> c #A11B31",
", c #801427",
"< c #29050D",
"1 c #3A0810",
"2 c #3A0911",
"3 c #3B0910",
"4 c #3B0911",
"5 c #811427",
"6 c #2C080E",
"7 c #3B0811",
"8 c #010001",
"9 c #811426",
"0 c #010100",
"q c #3B0810",
"w c #801426",
"e c #3A0811",
"r c #3A0910",
"t c #A11B30",
"y c #000001",
"u c #FEFEFF",
"i c #000101",
"p c #FFFFFE",
"a c #811527",
"s c #2C0810",
"d c #FFFEFE",
"f c #A01A31",
"g c #811526",
"h c #29060C",
"j c #010101",
"k c #801526",
"l c #A01A30",
"z c #801527",
"x c #28050D",
/* pixels */
" .XoOO  o o  X+   .X+.@  XX X   ",
"O XXo.O## XOo# #. oo  $ XOOX#XX ",
" X+. o..o#. +%%%%&%*o X.o ...+ .",
".X+  #XoX  .%=-;:->,% oo X.<XX X",
"oO##o O .  %>1234:-;5%  6  @ o o",
"  .X#+oo .%=7*8&84=;>9* ..+.+.O ",
"  . .Xo .&;7&08%&&q>:w& . O . # ",
"   +#  o 0:e%8&%**rt;59%+XO  #  ",
" . .+ X .yt1ui0yp&1>a9,%s #+.o. ",
"..@O+ O o%-4d8*yp%4f91g8#h.    O",
"..o ..+O+y928ii%%j7tge5%+@ o.XO ",
" XXO.o..@ywe0i8&%e>9g*%.Xo  XO #",
"+. X O  #+y94ij&39w9%oX+ X . o  ",
".  X#   o++%ger4k9&%Oo o  oXX. o",
"#++#+@   O%kltf->k,5%#   XXOXooo",
" .# #oooo%9:::t;>=->k%+  .X ..Oo",
"O .O#+X. y5=l=>>-=f:5yo+o+.oo o ",
"ooo@oXX  &f>;:f;l:>l;% X O. +#o ",
" o+X.Xo  y-:=l>=;t:=ta& oOX #   ",
"ooXO.O. %zf>=;z>:t:t=k* X oX o.#",
"X +  X  85lf>>z-f=ttf5% .oX  ..X",
"##O   O.%kat:z7k;f:->9% oo.Xo.# ",
"O#X.XX+.%5k-,z755;w>aga%O+oX#X.X",
" o@.O  +%5a,,ryekw;zak5% o#Ooo##",
"  oo   .%,qa5e%y3awk,3w%    #.o ",
"  XX .  o%9,2ii%75a2gr% XXoX.O+ ",
".<X   o.@ %*%iX+y%%*%i  o  #XX o",
"oX# +ooo . Xy.X  &yXo@o. XXoO.Xo",
" @ x# o  X. yXoOo*  .ooO X.X  O.",
" X#+  O O##Xy  O jO @ o. +  .# X",
".  .X  O. . . o oX .   OX+ X.OX ",
"  .  .Xo +X@ o. O XXOo.+#+   X+o"
};
