/* XPM */
static char *b4d6a22cafe348539970ce578b22e9fd8fRZOBW3Of7MOfCc[] = {
/* columns rows colors chars-per-pixel */
"32 32 4 1 ",
"  c #0C1317",
". c #70162B",
"X c #A15C52",
"o c #472138",
/* pixels */
"  .XXXXXXXXXXXXXXXXXXXXXXXXXXX..",
" .XXXXXXXXXXXXXXXXXXXXXXXXXXXXX.",
"oXXXXXXXXXXXXXXXXXXXXXXXXXXXXXXX",
"oXXXXXXXXXXXXXXXXXXXXXXXXXXXXXXX",
"oXXXXXXXXXXXXXXXXXXXXXXXXXXXXXXX",
"oXXXXXXXXXXXXXXXXXXXXXXXXXXXXXXX",
".XXXXXXXXXXXXXXXXXXXXXXXXXXXXXXX",
".XXXXXXXXXXXXXXXXXXXXXXXXXXXXXXX",
".XXXXXXXXXXXXXXXXXXXXXXXXXXXXXXX",
".XXXXXXXXXXXXXXXXXXXXXXXXXXXXXXX",
".XXXXXXXXXXXXXXXXXXXXXXXXXXXXXXX",
".XXXXXXXXXXXXXXXXXXXXXXXXXXXXXXX",
"oXXXXXXXXXXXXXXXXXXXXXXXXXXXXXXX",
"ooXXXXXXXXXXXXXXXXXXXXXXXXXXXXXo",
"oooXXXXXXXXXXXXXXXXXXXXXXXXXXXoo",
"oooo...............o.........ooo",
"  .XXXXXXXXXXXXXXXXXXXXXXXXXXX..",
" .XXXXXXXXXXXXXXXXXXXXXXXXXXXXX.",
"oXXXXXXXXXXXXXXXXXXXXXXXXXXXXXXX",
"oXXXXXXXXXXXXXXXXXXXXXXXXXXXXXXX",
"oXXXXXXXXXXXXXXXXXXXXXXXXXXXXXXX",
"oXXXXXXXXXXXXXXXXXXXXXXXXXXXXXXX",
".XXXXXXXXXXXXXXXXXXXXXXXXXXXXXXX",
".XXXXXXXXXXXXXXXXXXXXXXXXXXXXXXX",
".XXXXXXXXXXXXXXXXXXXXXXXXXXXXXXX",
".XXXXXXXXXXXXXXXXXXXXXXXXXXXXXXX",
"oXXXXXXXXXXXXXXXXXXXXXXXXXXXXXXX",
"oXXXXXXXXXXXXXXXXXXXXXXXXXXXXXXX",
"oXXXXXXXXXXXXXXXXXXXXXXXXXXXXXXX",
" XXXXXXXXXXXXXXXXXXXXXXXXXXXXXXo",
" oXXXXXXXXXXXXXXXXXXXXXXXXXXXXoo",
" oo ..o......ooo   ............."
};
