/* XPM */
static char *_fc43a36438543c9b3f481e35ff43322vWdlh0wfwC3dL1xt[] = {
/* columns rows colors chars-per-pixel */
"32 32 4 1 ",
"  c #0C1317",
". c #472138",
"X c #70162B",
"o c #A15C52",
/* pixels */
" .XoooooooooooooooooooooooooooXX",
" XoooooooooooooooooooooooooooooX",
".ooooooooooooooooooooooooooooooo",
".ooooooooooooooooooooooooooooooo",
"Xooooooooooooooooooooooooooooooo",
"Xooooooooooooooooooooooooooooooo",
"Xooooooooooooooooooooooooooooooo",
"Xooooooooooooooooooooooooooooooo",
"Xooooooooooooooooooooooooooooooo",
".ooooooooooooooooooooooooooooooo",
".ooooooooooooooooooooooooooooooo",
".ooooooooooooooooooooooooooooooo",
" ooooooooooooooooooooooooooooooo",
" .ooooooooooooooooooooooooooooo.",
" ..ooooooooooooooooooooooooooo..",
" ...XXXXXXXXXXXXXXX.XXXXXXXXX...",
" XXXXXXXXXXXXXXXXXX.XXXXXXXXXXXX",
".XXXXXXXXXXXXXXXX...XXXXXXXXXXXX",
".XXXXXXXXXXXXXXXXXXX.XXXXXXXXXXX",
" XXXXXXXXXXXXXXXXXXXX.XXXXXXXXXX",
" XXXXXXXXXXXXXXXXXXXXXXXXXXXXXX ",
" XXXXXXXXXXXXXXXXXXXXXXXXXXXXX  ",
"  XXXXXXXXXXXXXXXXXXXXXXXXXXX   ",
"      .......         ..........",
"XXXXXXXXXXXXX... ...XXXXXXX.XXXX",
"XXXXXXXXXXXXXX.. ..XXXXXXXX.XXXX",
"XXXXXXXXXXXXXXXX .XXXXXXXXX.XXXX",
"XXXXXXXXXXXXXXXX XXXXXXXXXXX.XXX",
"XXXXXXXXXXXXXXXX .XXXXXXXXXXX.XX",
"XXXXXXXXXXXXXXX. .XXXXXXXXXXXXXX",
"XXXXXXX.XXXXXX..  XXXXXXXXXXXXXX",
"XXXXXX.XXXXXX...   XXXXXXXXXXXXX"
};
