/* XPM */
static char *_727e3c8a8814c1ff65fe08209f3fdf2TEnWHJfER2Sgarin[] = {
/* columns rows colors chars-per-pixel */
"128 64 11 1 ",
"  c #2A070E",
". c white",
"X c #FEFFFE",
"o c black",
"O c #FFFEFF",
"+ c #FEFEFF",
"@ c #FEFFFF",
"# c #FFFFFE",
"$ c #FFFEFE",
"% c #FEFEFE",
"& c #2A060E",
/* pixels */
"                                                                                                                                ",
"                                                    .Xo O.  .+@...  +O   @#                                                     ",
"                                                    .#  .#  $@.@..  .#   .#                                                     ",
"                                                    .@  .%  #.  @.  #.   .@                                                     ",
"                                                    ....@@  X#  O.  ..   .@                                                     ",
"                                                    ...O$#  .X  ..  ..   ..                                 &&&&&&              ",
"                                                      ..    .+  @.  .#   ..                         &&&&&   &&&&&&              ",
"                                                      O.    @@  ..  .#   #.                         &&&&&&  &&&&&&              ",
"                                                      %.    @#  @.  O.   $O                        &&&&&&&  &&&&&&              ",
"                                                      .O    #.  .@  @.   ..                        &&&&&&&  &&&&&&              ",
"                                                      ..    ..##.+  @##@.X@                        &&&&&&&  &&&&&&              ",
"                                                      ..    +.#..$  .#.O$..                    &&&&&&&&&&& &&&&&&&              ",
"                                                                                              &&&&&&&&&&&& &&&&&&&&&&           ",
"                                                                                              &&&&&&&&&&&& &&&&&&&&&&           ",
"                                                                                              &&&&&&&&&&&& &&&&&&&&&&           ",
"                                                                                        &&&&&&&&&&&&&&&&&&&&&&&&&&&&&           ",
"          ........                          ........   ..............................   ............&&&&&&&&&&&&......          ",
"          ........                          ........   ..............................   ............&&&&&&&&&&&&......          ",
"          ........                          ........   ..............................   ............&&&&&&&&&&&&......          ",
"          ........                          ........   ..............................   ............&&&&&&&&&&&&......          ",
"          ........                          ........   ..............................   ............&&&&&&&&&&&&......          ",
"          ........                          ........   ..............................   ............&&&&&&&&&&&&......          ",
"          ........                          ........   ......&&&&&&&&&&&&&&&&&&......   ......&&&......&&&&&&&&&......          ",
"          ........                          ........   ......&&&&&&&&&&&&&&&&&&......   ......&&&......&&&&&&&&&......          ",
"          ........                          ........   ......&&&&&&&&&&&&&&&&&&......   ......&&&......&&&&&&&&&......          ",
"          ........                          ........   ......&&&&&&&&&&&&&&&&&&......   ......&&&......&&&&&&&&&......          ",
"          ........                          ........   ......&&&&&&&&&&&&&&&&&&......  &......&&&......&&&&&&&&&......          ",
"          ........                          ........   ......&&&&&&&&&&&&&&&&&&......  &......&&&......&&&&&&&&&......          ",
"          ........                          ........   ......                  ......  &......&&&&&......&&&&&&&......          ",
"          ........                          ........   ......                  ......  &......&&&&&......&&&&&&&......          ",
"          ........                          ........   ......                  ......  &......&&&&&......&&&&&&&......          ",
"          ........                          ........   ......                  ......  &......&&&&&......&&&&&&&......          ",
"          ........                          ........   ......                  ......  &......&&&&&......&&&&&&&......          ",
"          ........                          ........   ......                  ......  &......&&&&&......&&&&&  ......          ",
"          ........          &&&&&&          ........   ......                  ...... &&......&&&&&&&......&&   ......          ",
"          ........          &&&&&&          ........   ......                  ...... &&......&&&&&&&......&&   ......          ",
"          ........          &&&&&&          ........   ......                  ...... &&......&&&&&&&......&&   ......          ",
"          ........          ......          ........   ......                  ...... &&......&&&&&&&......&&   ......          ",
"          ........          ......          ........   ......                  ...... &&......&&&&&&&......&    ......          ",
"          ........          ......          ........   ......                  ...... &&......&&&&&&&&......    ......          ",
"          ........          ......          ........   ......                  ...... &&......&&&&&&&&......    ......          ",
"          ........          ......          ........   ......                  ...... &&......&&&&&&&&......    ......          ",
"          ........          ......          ........   ......                  ......&&&......&&&&&&&&......    ......          ",
"          ........          ......          ........   ......                  ......&&&......&&&&&&&&......    ......          ",
"          ........    ..................    ........   ......                  ......&&&......&&&&&&&&......    ......          ",
"          ........    ..................    ........   ......                  ......&&&......&&&&&&&&&&......  ......          ",
"          ........    ......&&&&&&......    ........   ......&&&&&&&&&&&&&&&&&&......&&&......&&&&&&&&&&......  ......          ",
"          ........    ......&&&&&&......    ........   ......&&&&&&&&&&&&&&&&&&......&&&......&&&&&&&&&&......  ......          ",
"          ........    ......&&&&&&......    ........   ......&&&&&&&&&&&&&&&&&&......&&&......&&&&&&&&&&......  ......          ",
"          ........    ......&&&&&&......    ........   ......&&&&&&&&&&&&&&&&&&......&&&......&&&&&&&&&&......  ......          ",
"          ........    ......&&&&&&......    ........   ......&&&&&&&&&&&&&&&&&&......&&&......&&&&&&&&&&......  ......          ",
"          ........    ......&&&&&&......    ........   ......&&&&&&&&&&&&&&&&&&......&&&......&&&&&&&&&&   ...........          ",
"          ..................      ..................   ..............................&&&......&&&&&&&&&&   ...........&&&&&     ",
"          ..................      ..................   ..............................&&&......&&&&&&&&&&   ...........&&&&&     ",
"          ............&&&&&&      &&&&&&............   ..............................&&&......&&&&&&&&&&&&&&..........&&&&&&&&& ",
"          ............&&&&&&      &&&&&&............   ..............................&&&......&&&&&&&&&&&&&&..........&&&&&&&&& ",
"          ............&&&&&&      &&&&&&............   ..............................&&&......&&&&&&&&&&&&&&..........&&&&&&&&& ",
"          ............&&&&&&      &&&&&&............   ..............................&&&......&&&&&&&&&&&&&&   &&&&&&&&&&&&&&&& ",
"                                                                                     &&&&&&& &&&&&&&&&&&&&&&   &&&&&&&&&&&&&&&& ",
"                                                                                     &&&&&&  &&&&&&&&&&&&&&&   &&&&&&&&&&&&&&&& ",
"                                                                                             &&&&&&&&&&&&&&&   &&&&&&&&&&&&&&&  ",
"                                                                                            &&&&&&&&&&&&       &&&&&&&&&&&&&&   ",
"                                                                                            &&&&&&&&&&&&       &&&&&&&&&&&&&    ",
"                                                                                            &&&&&&&&&&&&             &&&&&&     "
};
